<svg width="24" height="24" viewBox="0 0 24 24" fill="none" xmlns="http://www.w3.org/2000/svg">
<path fill-rule="evenodd" clip-rule="evenodd" d="M17.5 19C17.7761 19 18 18.7761 18 18.5V9.37818C18 9.2373 17.9406 9.10296 17.8363 9.00819L12.3363 4.00869C12.1456 3.83534 11.8544 3.83534 11.6637 4.00869L6.16368 9.00819C6.05943 9.10295 6 9.2373 6 9.37818V18.5C6 18.7761 6.22386 19 6.5 19H17.5ZM19 21H5C4.73478 21 4.48043 20.8946 4.29289 20.7071C4.10536 20.5196 4 20.2652 4 20V11.5C4 11.2238 3.77614 11 3.5 11H2.29332C1.8363 11 1.61882 10.4374 1.95699 10.13L11.327 1.61198C11.5111 1.44446 11.7511 1.35162 12 1.35162C12.2489 1.35162 12.4889 1.44446 12.673 1.61198L22.043 10.13C22.3812 10.4374 22.1637 11 21.7067 11H20.5C20.2239 11 20 11.2238 20 11.5V20C20 20.2652 19.8946 20.5196 19.7071 20.7071C19.5196 20.8946 19.2652 21 19 21Z" fill="url(#paint0_linear_64_16)"/>
<path d="M8 14.5C8 14.2238 8.2254 13.9957 8.49771 14.0415C9.10873 14.1443 9.67742 14.4348 10.1213 14.8787C10.5652 15.3226 10.8556 15.8912 10.9584 16.5023C11.0043 16.7746 10.7761 17 10.5 17H8.5C8.22386 17 8 16.7761 8 16.5V14.5Z" fill="url(#paint1_linear_64_16)"/>
<path d="M8 10.5C8 10.2238 8.22417 9.99812 8.49961 10.0178C10.1735 10.1375 11.7553 10.8557 12.9497 12.0502C14.1442 13.2447 14.8625 14.8265 14.9822 16.5004C15.0019 16.7758 14.7761 17 14.5 17H13.5C13.2239 17 13.0026 16.7756 12.975 16.5008C12.8604 15.358 12.3548 14.2837 11.5355 13.4644C10.7163 12.6452 9.64194 12.1396 8.49919 12.0249C8.22442 11.9974 8 11.7761 8 11.5V10.5Z" fill="url(#paint2_linear_64_16)"/>
<defs>
<linearGradient id="paint0_linear_64_16" x1="1" y1="1.35162" x2="32.5246" y2="21.4463" gradientUnits="userSpaceOnUse">
<stop stop-color="#FF3A44"/>
<stop offset="1" stop-color="#FF8086"/>
</linearGradient>
<linearGradient id="paint1_linear_64_16" x1="1" y1="1.35162" x2="32.5246" y2="21.4463" gradientUnits="userSpaceOnUse">
<stop stop-color="#FF3A44"/>
<stop offset="1" stop-color="#FF8086"/>
</linearGradient>
<linearGradient id="paint2_linear_64_16" x1="1" y1="1.35162" x2="32.5246" y2="21.4463" gradientUnits="userSpaceOnUse">
<stop stop-color="#FF3A44"/>
<stop offset="1" stop-color="#FF8086"/>
</linearGradient>
</defs>
</svg>
